<svg width="893" height="235" fill="none" xmlns="http://www.w3.org/2000/svg"><g filter="url(#filter0_d)"><path fill-rule="evenodd" clip-rule="evenodd" d="M857.715 140.223c0 .276-.211.5-.472.5-7.323 0-11.226 1.716-17.467 4.458l-1.509.662c-.869.379-1.859.145-2.848-.393-1-.543-2.09-1.445-3.227-2.574-2.278-2.26-4.827-5.519-7.315-8.931-1.668-2.287-3.32-4.659-4.85-6.855a610.587 610.587 0 00-2.156-3.083c-1.036-1.467-1.975-2.766-2.779-3.799-.813-1.043-1.461-1.78-1.919-2.151-12.229-9.913-29.317-1.841-32.244 12.121-.721 3.44-1.498 6.023-2.345 7.918-.846 1.892-1.778 3.136-2.828 3.843-2.143 1.444-4.524.501-6.945-.878-.723-.411-1.457-.866-2.209-1.331-1.852-1.146-3.812-2.358-5.963-3.158-2.98-1.108-6.254-1.385-9.909.553-1.115.591-2.686 2.002-4.448 3.841-1.747 1.825-3.638 4.024-5.388 6.14a318.631 318.631 0 00-4.514 5.615l-.005.006c-.584.738-1.062 1.343-1.396 1.753-.166.204-.301.366-.399.474a1.676 1.676 0 01-.144.147l-.002.001a.573.573 0 01-.156.098.456.456 0 01-.342 0 .501.501 0 01-.303-.41c-.584-4.951-3.204-10.288-6.894-14.188-3.692-3.902-8.382-6.294-13.091-5.526-7.619 1.243-12.02 6.118-15.687 11.983-1.174 1.876-2.258 3.83-3.351 5.797a227.867 227.867 0 01-1.901 3.381c-1.769 3.064-3.668 6.03-6.012 8.514-.29.308-.613.505-.968.576-.352.07-.693.007-1.004-.127-.6-.257-1.165-.808-1.665-1.367a31.101 31.101 0 01-.752-.884l-.002-.003c-.245-.295-.48-.577-.708-.832a6.308 6.308 0 00-.644-.64c-.202-.168-.367-.263-.497-.302-1.769-.536-4.144-.659-6.553-.52-2.402.139-4.795.534-6.581 1.008-2.867.759-6.505 2.758-10.567 5.304-2.205 1.382-4.499 2.902-6.844 4.456-1.988 1.317-4.013 2.659-6.054 3.963-4.417 2.823-8.845 5.428-12.887 7.05-4.025 1.614-7.764 2.296-10.75 1.129-2.284-.892-4.299-1.844-6.196-2.767l-.988-.482c-1.535-.751-3.003-1.469-4.503-2.113-3.622-1.554-7.415-2.665-12.627-2.665-2.396 0-3.749.543-4.646 1.215-.454.34-.809.725-1.133 1.127-.141.175-.274.35-.408.528l-.064.083c-.154.204-.313.41-.481.607-.336.395-.72.768-1.224 1.036-.508.27-1.108.418-1.857.411-1.475-.013-3.569-.628-6.798-2.149-4.822-2.273-9.152-5.911-13.429-9.686-.5-.441-.999-.884-1.498-1.327-3.788-3.362-7.58-6.727-11.726-9.32-1.356-.849-3.754-2.701-6.783-5.041-1.056-.816-2.188-1.691-3.38-2.603-4.631-3.544-10.196-7.685-15.763-11.22-5.577-3.541-11.115-6.447-15.697-7.557-2.29-.554-4.301-.649-5.943-.183-1.623.459-2.908 1.471-3.771 3.199-2.6 5.207-2.416 10.94-2.227 16.795.014.457.029.915.042 1.373.184 6.278.117 12.637-3.94 18.167-5.651 7.702-9.631 17.23-9.631 27.253 0 2.548-.7 10.097-1.753 16.685-.526 3.294-1.145 6.379-1.818 8.493-.333 1.044-.696 1.91-1.101 2.439-.202.264-.458.502-.778.587-.353.093-.681-.025-.948-.261-2.569-2.269-6.848-3.392-12.024-3.948-4.428-.475-9.426-.529-14.422-.583-.821-.009-1.642-.017-2.461-.028-5.779-.076-11.434-.245-15.976-1.187-4.515-.936-8.108-2.671-9.52-6.039-.878-2.092-1.244-4.115-1.498-5.953-.058-.422-.11-.831-.161-1.228-.173-1.354-.327-2.56-.643-3.639-.398-1.358-1.042-2.456-2.289-3.272-1.269-.83-3.208-1.397-6.253-1.567-4.316-.241-7.24-1.053-9.223-2.434-2.008-1.398-2.997-3.339-3.522-5.683-.452-2.021-.567-4.384-.694-6.986l-.057-1.143c-.158-3.076-.399-6.506-1.229-10.248-.134-.602-.27-1.495-.426-2.508l-.14-.915c-.219-1.399-.481-2.949-.826-4.356-.349-1.421-.77-2.637-1.282-3.405-.254-.38-.507-.613-.751-.725-.227-.104-.486-.121-.81.012-7.846 3.235-15.914 5.498-24.007 7.769l-.52.146c-6.394 1.794-10.783 2.765-13.881 2.909-3.115.144-5.026-.543-6.34-2.175-.641-.795-1.116-1.786-1.532-2.938-.415-1.152-.782-2.496-1.19-4.006l-.051-.19c-.81-2.997-1.81-6.703-3.705-11.121-1.638-3.822-3.911-6.441-6.504-8.787-1.161-1.05-2.382-2.041-3.642-3.066l-.457-.371c-1.419-1.154-2.881-2.359-4.332-3.726-1.053-.993-2.715-2.033-4.669-3.138-.857-.485-1.786-.99-2.735-1.505-1.165-.634-2.361-1.284-3.496-1.935-2.084-1.197-4.08-2.459-5.599-3.799-1.506-1.327-2.629-2.802-2.811-4.443-.366-3.299-1.598-4.819-3.175-5.368-1.646-.574-3.829-.154-6.204.851-4.727 1.999-9.81 6.136-11.902 7.911a1337.791 1337.791 0 01-7.567 6.355c-18.243 15.249-34.688 28.993-46.745 51.361l-.09.167c-1.105 2.053-4.943 9.182-8.662 13.773-.959 1.184-1.924 2.217-2.845 2.953-.907.725-1.84 1.22-2.723 1.2-.945-.022-1.695-.623-2.209-1.735-.504-1.088-.815-2.72-.922-4.977-.32-6.777-2.671-14.022-5.71-21.058-2.374-5.496-5.151-10.831-7.684-15.695-.709-1.363-1.4-2.688-2.056-3.97-12.369-24.144-26.082-49.02-47.593-64.94a399.296 399.296 0 00-4.221-3.073c-3.371-2.432-5.821-4.2-8.025-6.342-3.054-2.967-5.641-6.65-9.629-13.786l-.888-1.591c-4.07-7.304-8.419-15.108-13.782-20.49-2.869-2.88-6.007-5.044-9.522-6.066-3.509-1.02-7.427-.914-11.88.803-1.552.598-3.21 1.81-4.9 3.417-1.683 1.603-3.37 3.572-4.98 5.649-2.626 3.39-5.022 7.036-6.843 9.807-.412.628-.795 1.21-1.145 1.736-13 19.523-29.657 34.747-46.51 50.15a1687.08 1687.08 0 00-8.143 7.474.454.454 0 01-.665-.048.52.52 0 01.045-.705c2.718-2.516 5.442-5.006 8.158-7.489C47.315 90.841 63.874 75.705 76.802 56.29c.344-.517.724-1.094 1.133-1.718 1.82-2.77 4.243-6.459 6.896-9.883 1.626-2.098 3.348-4.11 5.08-5.758 1.727-1.643 3.492-2.952 5.206-3.613 4.62-1.78 8.738-1.907 12.452-.827 3.708 1.078 6.978 3.348 9.922 6.303 5.464 5.484 9.878 13.407 13.929 20.678l.903 1.62c3.974 7.11 6.505 10.693 9.455 13.56 2.151 2.09 4.522 3.8 7.863 6.21 1.274.92 2.689 1.94 4.286 3.122 21.716 16.071 35.52 41.153 47.882 65.282.65 1.27 1.336 2.587 2.042 3.943 2.535 4.869 5.336 10.249 7.727 15.783 3.056 7.076 5.465 14.457 5.794 21.424.104 2.211.407 3.681.826 4.587.408.881.888 1.164 1.384 1.175.557.013 1.276-.311 2.134-.998.845-.675 1.759-1.648 2.697-2.806 3.658-4.515 7.458-11.573 8.564-13.627l.086-.158c12.153-22.547 28.749-36.416 46.984-51.654 2.49-2.082 5.012-4.189 7.557-6.347 2.089-1.772 7.27-5.998 12.141-8.059 2.423-1.025 4.873-1.56 6.848-.872 2.045.712 3.425 2.668 3.818 6.201.138 1.245 1.018 2.506 2.477 3.792 1.444 1.273 3.372 2.497 5.445 3.687 1.15.66 2.309 1.29 3.451 1.91.942.512 1.873 1.018 2.775 1.528 1.95 1.102 3.704 2.191 4.852 3.273 1.423 1.341 2.861 2.527 4.279 3.68l.457.372c1.258 1.022 2.499 2.029 3.68 3.098 2.657 2.403 5.036 5.134 6.751 9.133 1.924 4.486 2.94 8.252 3.75 11.251l.053.198c.411 1.52.767 2.821 1.165 3.924.397 1.102.826 1.975 1.368 2.647 1.049 1.302 2.614 1.963 5.582 1.825 2.984-.139 7.283-1.082 13.681-2.877l.499-.14c8.108-2.275 16.132-4.526 23.927-7.74.536-.22 1.053-.215 1.527.003.459.21.834.599 1.145 1.064.617.924 1.072 2.29 1.425 3.731.357 1.454.625 3.042.844 4.445l.146.947c.154 1.004.282 1.845.408 2.41.85 3.832 1.094 7.333 1.253 10.423l.057 1.149c.128 2.618.239 4.878.67 6.803.486 2.171 1.369 3.858 3.121 5.078 1.778 1.238 4.504 2.034 8.755 2.272 3.114.173 5.236.757 6.699 1.714 1.486.972 2.246 2.297 2.695 3.826.342 1.167.51 2.486.684 3.857.049.384.098.772.152 1.162.25 1.808.601 3.724 1.426 5.692 1.209 2.883 4.366 4.536 8.84 5.464 4.445.922 10.016 1.092 15.807 1.168.814.011 1.632.02 2.452.028 4.992.054 10.039.108 14.514.588 5.189.558 9.727 1.696 12.532 4.175.089.078.116.059.116.059.033-.009.129-.057.275-.247.291-.381.611-1.099.939-2.129.649-2.035 1.258-5.056 1.783-8.34 1.049-6.567 1.739-14.053 1.739-16.518 0-10.302 4.087-20.04 9.829-27.866 3.829-5.219 3.927-11.235 3.743-17.523l-.045-1.414c-.189-5.802-.385-11.799 2.339-17.253.99-1.982 2.493-3.168 4.36-3.697 1.848-.524 4.029-.398 6.397.175 4.734 1.146 10.377 4.121 15.971 7.673 5.603 3.558 11.195 7.719 15.831 11.268 1.218.932 2.367 1.82 3.432 2.642 3.008 2.324 5.345 4.128 6.659 4.951 4.217 2.638 8.072 6.059 11.852 9.415.5.444.998.886 1.495 1.325 4.281 3.778 8.521 7.331 13.209 9.54 3.21 1.512 5.154 2.052 6.423 2.063.622.006 1.071-.116 1.426-.305.359-.19.652-.465.947-.811.148-.174.293-.362.447-.565.152-.201.315-.417.489-.633a7.284 7.284 0 011.306-1.295c1.094-.82 2.652-1.398 5.19-1.398 5.359 0 9.273 1.148 12.98 2.738 1.524.654 3.017 1.384 4.553 2.135l.978.478c1.891.92 3.88 1.86 6.129 2.738 2.652 1.036 6.115.468 10.09-1.126 3.958-1.588 8.325-4.154 12.734-6.971 2.002-1.28 4.026-2.62 6.019-3.94 2.366-1.568 4.69-3.107 6.886-4.483 4.058-2.544 7.803-4.615 10.818-5.414 1.848-.49 4.301-.894 6.759-1.036 2.45-.141 4.946-.024 6.863.557.295.089.57.269.819.476.253.209.503.466.746.738.242.269.486.564.727.853l.008.01c.245.296.487.587.729.857.496.555.939.959 1.334 1.128.186.08.341.098.476.071.134-.027.293-.106.475-.299 2.264-2.4 4.117-5.285 5.874-8.33.63-1.091 1.25-2.207 1.873-3.329 1.103-1.986 2.213-3.985 3.398-5.88 3.729-5.964 8.327-11.113 16.33-12.418 5.11-.833 10.084 1.773 13.9 5.806 3.567 3.77 6.186 8.849 7.015 13.742.316-.392.733-.92 1.232-1.551l.006-.008c1.169-1.478 2.774-3.509 4.527-5.63 1.756-2.124 3.664-4.343 5.435-6.193 1.758-1.835 3.424-3.353 4.689-4.024 3.933-2.084 7.48-1.777 10.642-.601 2.242.833 4.33 2.125 6.209 3.287.732.452 1.432.885 2.097 1.264 2.452 1.396 4.354 2.02 5.993.916.841-.567 1.675-1.625 2.481-3.428.805-1.8 1.564-4.304 2.278-7.707 3.066-14.628 20.926-23.084 33.737-12.698.553.448 1.262 1.267 2.073 2.308.819 1.052 1.769 2.367 2.807 3.837.688.975 1.415 2.018 2.169 3.101 1.526 2.192 3.166 4.546 4.828 6.825 2.484 3.406 4.995 6.61 7.213 8.813 1.111 1.102 2.127 1.932 3.013 2.414.896.487 1.569.571 2.059.357.523-.228 1.029-.45 1.521-.667 6.242-2.744 10.3-4.528 17.814-4.528.261 0 .472.224.472.5z" fill="#fff"/><path d="M74.562 9.969h2.63c1.594 0 2.314-.842 2.314-1.956 0-1.126-.744-1.761-1.424-1.8v-.071c.63-.17 1.156-.625 1.156-1.534 0-1.076-.704-1.91-2.164-1.91h-2.512v7.27zm1.035-.941v-2.33h1.53c.831 0 1.35.569 1.35 1.261 0 .611-.391 1.069-1.386 1.069h-1.494zm0-3.185V3.631h1.414c.82 0 1.212.458 1.212 1.062 0 .703-.543 1.15-1.24 1.15h-1.386zM82.148 9.969h4.34v-.945h-3.305V6.798h3.04v-.94h-3.04V3.642h3.265v-.944h-4.3v7.27zM88.726 9.969h.294c1.561 0 1.936-1.229 2.026-3.565l.108-2.776h2.34v6.34h1.022v-7.27H90.18l-.117 3.415c-.074 2.105-.315 2.876-1.135 2.897l-.201.007v.952zM97.438 2.698v7.27h.951l3.486-5.332h.064V9.97h1.035V2.698h-.958l-3.49 5.34h-.063v-5.34h-1.025zM109.96 9.969h1.263l-2.83-3.984 2.847-3.287h-1.283l-2.669 3.07h-.355v-3.07h-1.035v7.27h1.035V6.71h.71l2.317 3.259zM113.686 2.698v7.27h.951l3.486-5.332h.064V9.97h1.035V2.698h-.958l-3.49 5.34h-.063v-5.34h-1.025zM122.146 2.698v7.27h.951l3.487-5.332h.063V9.97h1.035V2.698h-.958l-3.49 5.34h-.063v-5.34h-1.025zm3.426-1.846c0 .358-.187.674-.656.674-.476 0-.653-.32-.653-.674h-.821c0 .798.573 1.349 1.474 1.349.907 0 1.48-.55 1.48-1.35h-.824zM70.272 21.966h1.035v-3.17h3.42v3.17h1.038v-7.271h-1.038v3.16h-3.42v-3.16h-1.035v7.271zM84.644 18.33c0-2.325-1.312-3.734-3.087-3.734-1.782 0-3.091 1.41-3.091 3.735 0 2.321 1.309 3.735 3.09 3.735 1.776 0 3.088-1.41 3.088-3.735zm-1.024 0c0 1.772-.884 2.734-2.063 2.734-1.183 0-2.063-.962-2.063-2.733 0-1.772.88-2.734 2.063-2.734 1.179 0 2.063.962 2.063 2.734zM87.35 21.966h2.628c1.595 0 2.315-.841 2.315-1.956 0-1.126-.744-1.761-1.424-1.8v-.071c.63-.17 1.156-.625 1.156-1.534 0-1.076-.704-1.91-2.164-1.91H87.35v7.271zm1.034-.94v-2.33h1.53c.831 0 1.35.568 1.35 1.26 0 .611-.391 1.07-1.386 1.07h-1.494zm0-3.185v-2.212h1.413c.821 0 1.213.458 1.213 1.061 0 .703-.543 1.15-1.24 1.15h-1.386zM99.211 14.695h-4.276v7.271h1.034V15.64h3.242v-.944zM107.465 18.33c0-2.325-1.313-3.734-3.088-3.734-1.782 0-3.091 1.41-3.091 3.735 0 2.321 1.309 3.735 3.091 3.735 1.775 0 3.088-1.41 3.088-3.735zm-1.025 0c0 1.772-.884 2.734-2.063 2.734-1.182 0-2.063-.962-2.063-2.733 0-1.772.881-2.734 2.063-2.734 1.179 0 2.063.962 2.063 2.734zM110.17 21.966h1.034V19.41h1.407c1.591 0 2.378-1.02 2.378-2.361 0-1.339-.781-2.354-2.375-2.354h-2.444v7.271zm1.034-3.486v-2.844h1.3c1.025 0 1.443.59 1.443 1.413 0 .823-.418 1.43-1.43 1.43h-1.313zM123.575 18.33c0-2.325-1.313-3.734-3.088-3.734-1.782 0-3.091 1.41-3.091 3.735 0 2.321 1.309 3.735 3.091 3.735 1.775 0 3.088-1.41 3.088-3.735zm-1.025 0c0 1.772-.884 2.734-2.063 2.734-1.182 0-2.063-.962-2.063-2.733 0-1.772.881-2.734 2.063-2.734 1.179 0 2.063.962 2.063 2.734zM125.76 23.724h.992v-1.758h4.605v1.747h.991v-2.677h-.777v-6.341h-4.23l-.161 3.071c-.103 2.024-.509 2.858-.968 3.27h-.452v2.688zm1.672-2.688c.391-.664.656-1.733.74-3.27l.107-2.127h2.301v5.397h-3.148zM10.237 125.67H4.945v7.271h1.032v-6.334h3.228v6.334h1.032v-7.271zM18.93 128.034c-.234-1.555-1.383-2.464-2.833-2.464-1.775 0-3.084 1.41-3.084 3.735 0 2.326 1.303 3.735 3.084 3.735 1.507 0 2.61-1.001 2.834-2.439l-1.045-.003c-.178.93-.915 1.441-1.782 1.441-1.175 0-2.063-.955-2.063-2.734 0-1.764.884-2.733 2.066-2.733.874 0 1.608.521 1.779 1.462h1.045zM25.646 132.941h1.262l-2.83-3.984 2.847-3.287h-1.283l-2.669 3.071h-.355v-3.071h-1.034v7.271h1.034v-3.259h.71l2.318 3.259zM34.989 129.305c0-2.325-1.313-3.735-3.088-3.735-1.782 0-3.091 1.41-3.091 3.735 0 2.322 1.309 3.735 3.09 3.735 1.776 0 3.089-1.409 3.089-3.735zm-1.025 0c0 1.772-.884 2.734-2.063 2.734-1.183 0-2.063-.962-2.063-2.734 0-1.771.88-2.733 2.063-2.733 1.179 0 2.063.962 2.063 2.733zM37.693 132.941h2.63c1.593 0 2.314-.842 2.314-1.956 0-1.126-.744-1.761-1.424-1.8v-.071c.63-.171 1.156-.625 1.156-1.534 0-1.076-.704-1.91-2.164-1.91h-2.512v7.271zm1.035-.941v-2.329h1.53c.831 0 1.35.568 1.35 1.26 0 .611-.391 1.069-1.386 1.069h-1.494zm0-3.185v-2.212h1.413c.821 0 1.213.458 1.213 1.062 0 .703-.543 1.15-1.24 1.15h-1.386zM158.87 153.608h2.137v6.327h1.031v-6.327h2.14v-.944h-5.308v.944zM166.766 159.935h2.629c1.594 0 2.314-.841 2.314-1.956 0-1.126-.743-1.761-1.423-1.8v-.071c.629-.171 1.155-.625 1.155-1.534 0-1.076-.703-1.91-2.163-1.91h-2.512v7.271zm1.035-.941v-2.329h1.53c.831 0 1.35.568 1.35 1.261 0 .61-.392 1.068-1.386 1.068h-1.494zm0-3.184v-2.212h1.413c.821 0 1.212.458 1.212 1.061 0 .703-.542 1.151-1.239 1.151h-1.386zM174.351 159.935h4.341v-.944h-3.306v-2.226h3.041v-.941h-3.041v-2.216h3.265v-.944h-4.3v7.271zM181.448 159.935h1.035v-2.556h1.407c1.591 0 2.378-1.019 2.378-2.361 0-1.339-.781-2.354-2.375-2.354h-2.445v7.271zm1.035-3.486v-2.844h1.3c1.024 0 1.443.589 1.443 1.413 0 .824-.419 1.431-1.43 1.431h-1.313zM189.94 155.597v-2.933h-1.038v7.271h2.569c1.527 0 2.401-.902 2.398-2.205.003-1.299-.871-2.133-2.398-2.133h-1.531zm0 .923h1.531c.887 0 1.376.539 1.376 1.196 0 .675-.489 1.296-1.376 1.296h-1.531v-2.492zM251.45 181.93v-7.271h-2.445c-1.591 0-2.375.941-2.375 2.279 0 .977.419 1.719 1.26 2.049l-1.521 2.943h1.179l1.393-2.751h1.474v2.751h1.035zm-1.035-3.696h-1.313c-1.008 0-1.43-.476-1.43-1.296 0-.823.422-1.338 1.443-1.338h1.3v2.634zM254.368 181.93h1.035v-2.556h1.406c1.591 0 2.378-1.019 2.378-2.361 0-1.339-.78-2.354-2.374-2.354h-2.445v7.271zm1.035-3.486V175.6h1.299c1.025 0 1.444.589 1.444 1.413 0 .824-.419 1.431-1.43 1.431h-1.313zM267.773 178.295c0-2.326-1.313-3.735-3.088-3.735-1.781 0-3.091 1.409-3.091 3.735 0 2.321 1.31 3.734 3.091 3.734 1.775 0 3.088-1.409 3.088-3.734zm-1.025 0c0 1.771-.884 2.733-2.063 2.733-1.182 0-2.063-.962-2.063-2.733 0-1.772.881-2.734 2.063-2.734 1.179 0 2.063.962 2.063 2.734zM276.175 177.023c-.235-1.555-1.384-2.463-2.834-2.463-1.775 0-3.084 1.409-3.084 3.735 0 2.325 1.303 3.734 3.084 3.734 1.507 0 2.609-1.001 2.834-2.439l-1.045-.003c-.178.93-.915 1.441-1.782 1.441-1.176 0-2.063-.955-2.063-2.733 0-1.765.884-2.734 2.066-2.734.874 0 1.608.522 1.779 1.462h1.045zM278.308 181.93h.295c1.561 0 1.936-1.228 2.026-3.564l.107-2.777h2.341v6.341h1.022v-7.271h-4.337l-.117 3.415c-.074 2.106-.315 2.876-1.136 2.897l-.201.008v.951zM287.6 181.93l.63-1.924h2.679l.626 1.924h1.099l-2.469-7.271h-1.195l-2.468 7.271h1.098zm.931-2.847l1.011-3.103h.054l1.011 3.103h-2.076zM295.039 181.93h2.629c1.594 0 2.314-.841 2.314-1.956 0-1.126-.744-1.761-1.423-1.8v-.071c.629-.171 1.155-.625 1.155-1.534 0-1.076-.703-1.91-2.164-1.91h-2.511v7.271zm1.035-.941v-2.329h1.53c.831 0 1.35.568 1.35 1.261 0 .61-.392 1.068-1.387 1.068h-1.493zm0-3.184v-2.212h1.413c.82 0 1.212.458 1.212 1.061 0 .703-.542 1.151-1.239 1.151h-1.386zM302.105 181.93h.295c1.56 0 1.935-1.228 2.026-3.564l.107-2.777h2.341v6.341h1.021v-7.271h-4.337l-.117 3.415c-.074 2.106-.315 2.876-1.135 2.897l-.201.008v.951zM311.862 177.592v-2.933h-1.038v7.271h2.568c1.528 0 2.402-.902 2.398-2.205.004-1.299-.87-2.133-2.398-2.133h-1.53zm0 .923h1.53c.888 0 1.377.539 1.377 1.196 0 .675-.489 1.296-1.377 1.296h-1.53v-2.492zM325.153 114.673v7.271h.985v-5.265h.064l2.022 5.254h.818l2.022-5.251h.064v5.262h.985v-7.271h-1.256l-2.184 5.652h-.08l-2.184-5.652h-1.256zM335.786 121.944l.63-1.925h2.679l.626 1.925h1.099l-2.468-7.271h-1.196l-2.468 7.271h1.098zm.931-2.848l1.012-3.103h.053l1.012 3.103h-2.077zM343.225 121.944h1.035v-3.171h3.419v3.171h1.038v-7.271h-1.038v3.159h-3.419v-3.159h-1.035v7.271zM351.301 115.617h2.136v6.327h1.032v-6.327h2.14v-.944h-5.308v.944zM359.682 122.043h.469c1.072 0 1.427-.635 1.728-1.36l2.371-6.01h-1.085l-1.601 4.203-1.798-4.203h-1.099l2.412 5.457-.097.259c-.148.38-.375.688-.888.688h-.412v.966zM366.644 121.944h1.035v-2.557h1.406c1.591 0 2.378-1.018 2.378-2.36 0-1.339-.78-2.354-2.374-2.354h-2.445v7.271zm1.035-3.487v-2.844h1.299c1.025 0 1.443.59 1.443 1.414 0 .823-.418 1.43-1.43 1.43h-1.312zM380.049 118.308c0-2.325-1.313-3.735-3.088-3.735-1.782 0-3.091 1.41-3.091 3.735 0 2.322 1.309 3.735 3.091 3.735 1.775 0 3.088-1.409 3.088-3.735zm-1.025 0c0 1.772-.884 2.734-2.063 2.734-1.182 0-2.063-.962-2.063-2.734 0-1.771.881-2.734 2.063-2.734 1.179 0 2.063.963 2.063 2.734zM382.754 121.944h2.629c1.594 0 2.314-.842 2.314-1.957 0-1.125-.744-1.76-1.424-1.8v-.071c.63-.17 1.156-.624 1.156-1.533 0-1.076-.703-1.91-2.164-1.91h-2.511v7.271zm1.034-.941v-2.329h1.531c.831 0 1.35.568 1.35 1.26 0 .611-.392 1.069-1.387 1.069h-1.494zm0-3.185v-2.212h1.414c.82 0 1.212.458 1.212 1.062 0 .703-.542 1.15-1.239 1.15h-1.387zM396.297 118.308c0-2.325-1.313-3.735-3.088-3.735-1.782 0-3.091 1.41-3.091 3.735 0 2.322 1.309 3.735 3.091 3.735 1.775 0 3.088-1.409 3.088-3.735zm-1.025 0c0 1.772-.884 2.734-2.063 2.734-1.182 0-2.063-.962-2.063-2.734 0-1.771.881-2.734 2.063-2.734 1.179 0 2.063.963 2.063 2.734zM378.74 149.937h1.263l-2.83-3.984 2.846-3.287h-1.282l-2.669 3.071h-.355v-3.071h-1.035v7.271h1.035v-3.259h.71l2.317 3.259zM388.083 146.301c0-2.325-1.313-3.735-3.088-3.735-1.782 0-3.091 1.41-3.091 3.735 0 2.322 1.309 3.735 3.091 3.735 1.775 0 3.088-1.409 3.088-3.735zm-1.025 0c0 1.772-.884 2.734-2.063 2.734-1.182 0-2.063-.962-2.063-2.734 0-1.771.881-2.733 2.063-2.733 1.179 0 2.063.962 2.063 2.733zM390.164 143.61h2.137v6.327h1.031v-6.327h2.14v-.944h-5.308v.944zM398.06 149.937h4.34v-.945h-3.305v-2.226h3.041v-.94h-3.041v-2.216h3.265v-.944h-4.3v7.271zM404.638 149.937h.294c1.561 0 1.936-1.229 2.027-3.565l.107-2.776h2.341v6.341h1.021v-7.271h-4.337l-.117 3.415c-.074 2.106-.315 2.876-1.135 2.897l-.201.007v.952zM414.395 145.598v-2.932h-1.038v7.271h2.568c1.528 0 2.402-.902 2.398-2.205.004-1.299-.87-2.134-2.398-2.134h-1.53zm0 .923h1.53c.888 0 1.377.54 1.377 1.197 0 .674-.489 1.296-1.377 1.296h-1.53v-2.493zM421 149.937h1.034v-3.171h3.42v3.171h1.038v-7.271h-1.038v3.16h-3.42v-3.16H421v7.271zM429.414 142.666v7.271h.951l3.486-5.333h.064v5.333h1.035v-7.271h-.958l-3.49 5.34h-.063v-5.34h-1.025zM438.011 142.666v2.4c-.003 1.622.925 2.261 2.425 2.261.66 0 1.229-.088 1.721-.237v2.847h1.025v-7.271h-1.025v3.486a6.604 6.604 0 01-1.721.235c-.894 0-1.403-.32-1.403-1.321v-2.4h-1.022zM449.137 145.843h-3.041v.92h3.041v-.92zM454.284 142.666h-.964c-.037.199-.559 1.118-1.561 1.118v.902c.777 0 1.316-.327 1.43-.54h.057v5.791h1.038v-7.271zM502.956 181.657h-4.276v7.271h1.035v-6.327h3.241v-.944zM505.018 188.928h.295c1.561 0 1.936-1.228 2.026-3.564l.107-2.777h2.341v6.341h1.022v-7.271h-4.337l-.117 3.415c-.074 2.106-.315 2.876-1.136 2.898l-.201.007v.951zM514.31 188.928l.629-1.924h2.68l.626 1.924h1.098l-2.468-7.271h-1.195l-2.469 7.271h1.099zm.931-2.847l1.011-3.103h.054l1.011 3.103h-2.076zM524.043 189.028c1.4 0 2.428-.888 2.424-2.095.004-.92-.522-1.58-1.433-1.729v-.057c.717-.195 1.182-.792 1.179-1.608.003-1.069-.824-1.981-2.144-1.981-1.259 0-2.27.806-2.304 1.988h1.002c.023-.668.616-1.072 1.289-1.072.7 0 1.159.45 1.155 1.122.004.702-.529 1.164-1.289 1.164h-.579v.895h.579c.951 0 1.5.511 1.5 1.242 0 .707-.579 1.186-1.386 1.186-.744 0-1.323-.405-1.363-1.051h-1.052c.044 1.186 1.035 1.996 2.422 1.996zM535.2 185.293c0-2.326-1.313-3.735-3.088-3.735-1.782 0-3.091 1.409-3.091 3.735 0 2.321 1.309 3.735 3.091 3.735 1.775 0 3.088-1.41 3.088-3.735zm-1.025 0c0 1.771-.884 2.733-2.063 2.733-1.182 0-2.063-.962-2.063-2.733 0-1.772.881-2.734 2.063-2.734 1.179 0 2.063.962 2.063 2.734zM537.904 188.928h2.629c1.595 0 2.315-.841 2.315-1.956 0-1.126-.744-1.761-1.424-1.8v-.071c.63-.171 1.156-.625 1.156-1.534 0-1.076-.704-1.91-2.164-1.91h-2.512v7.271zm1.035-.941v-2.329h1.531c.83 0 1.349.568 1.349 1.261 0 .61-.391 1.068-1.386 1.068h-1.494zm0-3.184v-2.212h1.414c.82 0 1.212.458 1.212 1.061 0 .703-.543 1.151-1.239 1.151h-1.387zM506.004 117.195h-5.291v7.271h1.031v-6.333h3.229v6.333h1.031v-7.271zM509.001 124.466h4.341v-.944h-3.306v-2.226h3.041v-.941h-3.041v-2.215h3.266v-.945h-4.301v7.271zM516.099 124.466h1.034v-2.556h1.407c1.591 0 2.378-1.019 2.378-2.361 0-1.338-.781-2.354-2.375-2.354h-2.444v7.271zm1.034-3.486v-2.844h1.3c1.025 0 1.443.59 1.443 1.413 0 .824-.418 1.431-1.43 1.431h-1.313zM523.546 117.195v7.271h.984v-5.265h.064l2.023 5.255h.817l2.023-5.251h.063v5.261h.985v-7.271h-1.256l-2.184 5.652h-.08l-2.183-5.652h-1.256zM534.644 120.128v-2.933h-1.038v7.271h2.569c1.527 0 2.401-.901 2.397-2.204.004-1.3-.87-2.134-2.397-2.134h-1.531zm0 .923h1.531c.887 0 1.376.54 1.376 1.196 0 .675-.489 1.296-1.376 1.296h-1.531v-2.492zM569.073 155.608h2.137v6.327h1.031v-6.327h2.14v-.944h-5.308v.944zM578.004 154.664h-1.035v7.271h1.035v-3.089h1.202c.188 1.995 1.427 3.188 3.065 3.188 1.775 0 3.087-1.409 3.087-3.735 0-2.325-1.312-3.735-3.087-3.735-1.685 0-2.948 1.261-3.081 3.363h-1.186v-3.263zm6.33 3.635c0 1.772-.885 2.734-2.063 2.734-1.183 0-2.063-.962-2.063-2.734 0-1.771.88-2.733 2.063-2.733 1.178 0 2.063.962 2.063 2.733zM587.888 154.664v7.271h.985v-5.265h.064l2.022 5.254h.818l2.022-5.251h.064v5.262h.985v-7.271h-1.256l-2.184 5.652h-.08l-2.184-5.652h-1.256zM597.942 161.935h4.34v-.944h-3.305v-2.227h3.041v-.94h-3.041v-2.216h3.265v-.944h-4.3v7.271zM605.039 161.935h1.035v-3.171h3.419v3.171h1.038v-7.271h-1.038v3.16h-3.419v-3.16h-1.035v7.271zM614.498 157.596v-2.932h-1.038v7.271h2.568c1.528 0 2.402-.902 2.398-2.205.004-1.299-.87-2.134-2.398-2.134h-1.53zm0 .924h1.53c.888 0 1.377.539 1.377 1.196 0 .675-.489 1.296-1.377 1.296h-1.53v-2.492zM662.454 180.294c0-2.326-1.312-3.735-3.087-3.735-1.782 0-3.092 1.409-3.092 3.735 0 2.321 1.31 3.734 3.092 3.734 1.775 0 3.087-1.409 3.087-3.734zm-1.024 0c0 1.771-.885 2.733-2.063 2.733-1.183 0-2.063-.962-2.063-2.733 0-1.772.88-2.734 2.063-2.734 1.178 0 2.063.962 2.063 2.734zM665.159 176.658v7.271h.985v-5.265h.063l2.023 5.254h.817l2.023-5.251h.064v5.262h.985v-7.271h-1.256l-2.184 5.652h-.08l-2.184-5.652h-1.256zM680.909 179.023c-.234-1.556-1.383-2.464-2.833-2.464-1.775 0-3.084 1.409-3.084 3.735 0 2.325 1.302 3.734 3.084 3.734 1.507 0 2.609-1.001 2.833-2.439l-1.044-.003c-.178.93-.915 1.441-1.782 1.441-1.176 0-2.063-.955-2.063-2.733 0-1.765.884-2.734 2.066-2.734.874 0 1.608.522 1.779 1.463h1.044zM687.625 183.929h1.262l-2.83-3.983 2.847-3.288h-1.283l-2.669 3.071h-.355v-3.071h-1.035v7.271h1.035v-3.259h.71l2.318 3.259zM764.234 104.948h1.263l-2.83-3.984 2.847-3.287h-1.283l-2.669 3.071h-.355v-3.071h-1.035v7.271h1.035v-3.26h.71l2.317 3.26zM767.96 104.948h1.035v-2.557h1.406c1.591 0 2.378-1.019 2.378-2.361 0-1.338-.78-2.353-2.374-2.353h-2.445v7.271zm1.035-3.487v-2.844h1.299c1.025 0 1.443.59 1.443 1.413 0 .824-.418 1.431-1.43 1.431h-1.312zM775.259 104.948l.629-1.925h2.679l.627 1.925h1.098l-2.468-7.271h-1.196l-2.468 7.271h1.099zm.931-2.848l1.011-3.103h.054l1.011 3.103h-2.076zM788.072 100.041c-.235-1.555-1.383-2.464-2.834-2.464-1.775 0-3.084 1.41-3.084 3.735 0 2.326 1.303 3.735 3.084 3.735 1.507 0 2.609-1.001 2.834-2.439l-1.045-.004c-.178.931-.914 1.442-1.782 1.442-1.175 0-2.063-.955-2.063-2.734 0-1.764.884-2.734 2.066-2.734.875 0 1.608.522 1.779 1.463h1.045zM790.725 104.948h1.035v-3.171h3.419v3.171h1.038v-7.271h-1.038v3.159h-3.419v-3.16h-1.035v7.272zM805.097 101.312c0-2.325-1.313-3.735-3.088-3.735-1.782 0-3.091 1.41-3.091 3.735 0 2.322 1.309 3.735 3.091 3.735 1.775 0 3.088-1.409 3.088-3.735zm-1.025 0c0 1.772-.884 2.734-2.063 2.734-1.182 0-2.063-.962-2.063-2.734s.881-2.734 2.063-2.734c1.179 0 2.063.962 2.063 2.734zM812.376 104.948v-7.271h-2.444c-1.591 0-2.375.94-2.375 2.279 0 .976.419 1.718 1.259 2.048l-1.52 2.944h1.179l1.393-2.752h1.474v2.752h1.034zm-1.034-3.696h-1.313c-1.008 0-1.43-.476-1.43-1.296 0-.824.422-1.339 1.443-1.339h1.3v2.635zM815.295 104.948h1.035v-2.557h1.406c1.591 0 2.378-1.019 2.378-2.361 0-1.338-.78-2.353-2.374-2.353h-2.445v7.271zm1.035-3.487v-2.844h1.299c1.025 0 1.443.59 1.443 1.413 0 .824-.418 1.431-1.43 1.431h-1.312zM828.439 100.041c-.235-1.555-1.384-2.464-2.834-2.464-1.775 0-3.084 1.41-3.084 3.735 0 2.326 1.303 3.735 3.084 3.735 1.507 0 2.609-1.001 2.834-2.439l-1.045-.004c-.178.931-.915 1.442-1.782 1.442-1.176 0-2.063-.955-2.063-2.734 0-1.764.884-2.734 2.066-2.734.874 0 1.608.522 1.779 1.463h1.045zM835.154 104.948h1.262l-2.829-3.984 2.846-3.287h-1.283l-2.669 3.071h-.355v-3.071h-1.035v7.271h1.035v-3.26h.71l2.318 3.26zM830.736 162.034h.469c1.072 0 1.427-.635 1.728-1.359l2.372-6.011h-1.086l-1.6 4.203-1.799-4.203h-1.098l2.411 5.457-.097.259c-.147.38-.375.689-.888.689h-.412v.965zM837.179 161.935h.295c1.56 0 1.935-1.228 2.026-3.565l.107-2.776h2.341v6.341h1.021v-7.271h-4.337l-.117 3.415c-.074 2.106-.315 2.876-1.135 2.897l-.201.007v.952zM846.47 161.935l.63-1.924h2.679l.627 1.924h1.098l-2.468-7.271h-1.196l-2.468 7.271h1.098zm.931-2.847l1.012-3.103h.053l1.012 3.103h-2.077zM853.909 161.935h1.035v-3.171h3.419v3.171h1.039v-7.271h-1.039v3.16h-3.419v-3.16h-1.035v7.271zM865.274 157.841h-3.041v.92h3.041v-.92zM867.99 162.034h.469c1.072 0 1.427-.635 1.728-1.359l2.371-6.011h-1.085l-1.601 4.203-1.798-4.203h-1.098l2.411 5.457-.097.259c-.148.38-.375.689-.888.689h-.412v.965zM874.433 163.692h.991v-1.757h4.605v1.747h.991v-2.677h-.777v-6.341h-4.23l-.16 3.071c-.104 2.024-.509 2.858-.968 3.27h-.452v2.687zm1.671-2.687c.392-.664.656-1.733.74-3.27l.107-2.127h2.301v5.397h-3.148zM883.351 159.627c.13 1.378.981 2.407 2.636 2.407 1.654 0 2.712-1.31 2.712-3.348v-.756c0-2.038-1.071-3.366-2.769-3.366-1.615 0-2.449 1.044-2.582 2.45h1.054c.108-.944.526-1.505 1.528-1.505 1.101 0 1.718.944 1.721 2.414h-2.529v.93h2.526c-.044 1.282-.573 2.251-1.661 2.251-1.029 0-1.467-.518-1.585-1.477h-1.051z" fill="#fff"/><path d="M105.36 34.3c0 1.928-1.475 3.492-3.294 3.492-1.82 0-3.294-1.564-3.294-3.492 0-1.929 1.474-3.492 3.294-3.492 1.819 0 3.294 1.563 3.294 3.492z" fill="#272722"/><path fill-rule="evenodd" clip-rule="evenodd" d="M102.066 36.792c1.298 0 2.351-1.116 2.351-2.492 0-1.377-1.053-2.493-2.351-2.493-1.299 0-2.351 1.116-2.351 2.493 0 1.376 1.052 2.492 2.351 2.492zm0 1c1.819 0 3.294-1.564 3.294-3.492 0-1.929-1.475-3.492-3.294-3.492-1.82 0-3.294 1.563-3.294 3.492 0 1.928 1.474 3.492 3.294 3.492z" fill="#fff"/><path d="M24.483 115.437c0 1.929-1.475 3.493-3.294 3.493-1.82 0-3.294-1.564-3.294-3.493 0-1.928 1.474-3.492 3.294-3.492 1.819 0 3.294 1.564 3.294 3.492z" fill="#131313"/><path fill-rule="evenodd" clip-rule="evenodd" d="M21.189 117.93c1.298 0 2.35-1.116 2.35-2.493 0-1.376-1.052-2.492-2.35-2.492-1.299 0-2.351 1.116-2.351 2.492 0 1.377 1.052 2.493 2.35 2.493zm0 1c1.819 0 3.294-1.564 3.294-3.493 0-1.928-1.475-3.492-3.294-3.492-1.82 0-3.294 1.564-3.294 3.492 0 1.929 1.474 3.493 3.294 3.493z" fill="#fff"/><path d="M207.477 156.525c0 1.929-1.475 3.492-3.294 3.492s-3.294-1.563-3.294-3.492c0-1.928 1.475-3.492 3.294-3.492s3.294 1.564 3.294 3.492z" fill="#4D5648"/><path fill-rule="evenodd" clip-rule="evenodd" d="M204.183 159.018c1.298 0 2.351-1.116 2.351-2.493 0-1.376-1.053-2.492-2.351-2.492-1.299 0-2.351 1.116-2.351 2.492 0 1.377 1.052 2.493 2.351 2.493zm0 .999c1.819 0 3.294-1.563 3.294-3.492 0-1.928-1.475-3.492-3.294-3.492s-3.294 1.564-3.294 3.492c0 1.929 1.475 3.492 3.294 3.492z" fill="#fff"/><path d="M237.948 178.351c0 1.929-1.475 3.493-3.294 3.493-1.82 0-3.295-1.564-3.295-3.493 0-1.928 1.475-3.492 3.295-3.492 1.819 0 3.294 1.564 3.294 3.492z" fill="#47443E"/><path fill-rule="evenodd" clip-rule="evenodd" d="M234.654 180.844c1.298 0 2.351-1.116 2.351-2.493 0-1.376-1.053-2.492-2.351-2.492-1.299 0-2.352 1.116-2.352 2.492 0 1.377 1.053 2.493 2.352 2.493zm0 1c1.819 0 3.294-1.564 3.294-3.493 0-1.928-1.475-3.492-3.294-3.492-1.82 0-3.295 1.564-3.295 3.492 0 1.929 1.475 3.493 3.295 3.493z" fill="#fff"/><path d="M321.125 127.716c0 1.928-1.474 3.492-3.294 3.492-1.819 0-3.294-1.564-3.294-3.492 0-1.929 1.475-3.492 3.294-3.492 1.82 0 3.294 1.563 3.294 3.492z" fill="#93A47C"/><path fill-rule="evenodd" clip-rule="evenodd" d="M317.831 130.208c1.299 0 2.351-1.116 2.351-2.492 0-1.377-1.052-2.493-2.351-2.493-1.298 0-2.351 1.116-2.351 2.493 0 1.376 1.053 2.492 2.351 2.492zm0 1c1.82 0 3.294-1.564 3.294-3.492 0-1.929-1.474-3.492-3.294-3.492-1.819 0-3.294 1.563-3.294 3.492 0 1.928 1.475 3.492 3.294 3.492z" fill="#fff"/><path d="M394.419 161.765c0 1.928-1.475 3.492-3.294 3.492s-3.294-1.564-3.294-3.492c0-1.929 1.475-3.493 3.294-3.493s3.294 1.564 3.294 3.493z" fill="#738F8C"/><path fill-rule="evenodd" clip-rule="evenodd" d="M391.125 164.257c1.299 0 2.351-1.116 2.351-2.492 0-1.377-1.052-2.493-2.351-2.493-1.298 0-2.351 1.116-2.351 2.493 0 1.376 1.053 2.492 2.351 2.492zm0 1c1.819 0 3.294-1.564 3.294-3.492 0-1.929-1.475-3.493-3.294-3.493s-3.294 1.564-3.294 3.493c0 1.928 1.475 3.492 3.294 3.492z" fill="#fff"/><path d="M490.773 185.335c0 1.929-1.475 3.492-3.294 3.492-1.82 0-3.294-1.563-3.294-3.492s1.474-3.492 3.294-3.492c1.819 0 3.294 1.563 3.294 3.492z" fill="#789186"/><path fill-rule="evenodd" clip-rule="evenodd" d="M487.479 187.827c1.298 0 2.351-1.116 2.351-2.492 0-1.377-1.053-2.492-2.351-2.492-1.299 0-2.351 1.115-2.351 2.492 0 1.376 1.052 2.492 2.351 2.492zm0 1c1.819 0 3.294-1.563 3.294-3.492s-1.475-3.492-3.294-3.492c-1.82 0-3.294 1.563-3.294 3.492s1.474 3.492 3.294 3.492z" fill="#fff"/><path d="M522.066 133.827c0 1.929-1.475 3.492-3.294 3.492-1.82 0-3.294-1.563-3.294-3.492s1.474-3.492 3.294-3.492c1.819 0 3.294 1.563 3.294 3.492z" fill="#8CBABB"/><path fill-rule="evenodd" clip-rule="evenodd" d="M518.772 136.319c1.298 0 2.351-1.115 2.351-2.492 0-1.376-1.053-2.492-2.351-2.492-1.299 0-2.351 1.116-2.351 2.492 0 1.377 1.052 2.492 2.351 2.492zm0 1c1.819 0 3.294-1.563 3.294-3.492s-1.475-3.492-3.294-3.492c-1.82 0-3.294 1.563-3.294 3.492s1.474 3.492 3.294 3.492z" fill="#fff"/><path d="M575.598 173.113c0 1.929-1.475 3.492-3.294 3.492s-3.294-1.563-3.294-3.492c0-1.928 1.475-3.492 3.294-3.492s3.294 1.564 3.294 3.492z" fill="#414847"/><path fill-rule="evenodd" clip-rule="evenodd" d="M572.304 175.606c1.298 0 2.351-1.116 2.351-2.493 0-1.376-1.053-2.492-2.351-2.492-1.299 0-2.351 1.116-2.351 2.492 0 1.377 1.052 2.493 2.351 2.493zm0 .999c1.819 0 3.294-1.563 3.294-3.492 0-1.928-1.475-3.492-3.294-3.492s-3.294 1.564-3.294 3.492c0 1.929 1.475 3.492 3.294 3.492z" fill="#fff"/><path d="M675.245 160.018c0 1.928-1.475 3.492-3.295 3.492-1.819 0-3.294-1.564-3.294-3.492 0-1.929 1.475-3.493 3.294-3.493 1.82 0 3.295 1.564 3.295 3.493z" fill="#577379"/><path fill-rule="evenodd" clip-rule="evenodd" d="M671.95 162.51c1.299 0 2.351-1.116 2.351-2.492 0-1.377-1.052-2.493-2.351-2.493-1.298 0-2.351 1.116-2.351 2.493 0 1.376 1.053 2.492 2.351 2.492zm0 1c1.82 0 3.295-1.564 3.295-3.492 0-1.929-1.475-3.493-3.295-3.493-1.819 0-3.294 1.564-3.294 3.493 0 1.928 1.475 3.492 3.294 3.492z" fill="#fff"/><path d="M802.495 112.874c0 1.929-1.474 3.492-3.294 3.492-1.819 0-3.294-1.563-3.294-3.492s1.475-3.492 3.294-3.492c1.82 0 3.294 1.563 3.294 3.492z" fill="#3E403A"/><path fill-rule="evenodd" clip-rule="evenodd" d="M799.201 115.366c1.299 0 2.351-1.116 2.351-2.492 0-1.377-1.052-2.492-2.351-2.492-1.298 0-2.351 1.115-2.351 2.492 0 1.376 1.053 2.492 2.351 2.492zm0 1c1.82 0 3.294-1.563 3.294-3.492s-1.474-3.492-3.294-3.492c-1.819 0-3.294 1.563-3.294 3.492s1.475 3.492 3.294 3.492z" fill="#fff"/><path d="M861.946 140.433c0 1.928-1.475 3.492-3.294 3.492-1.82 0-3.295-1.564-3.295-3.492 0-1.929 1.475-3.493 3.295-3.493 1.819 0 3.294 1.564 3.294 3.493z" fill="#181A19"/><path fill-rule="evenodd" clip-rule="evenodd" d="M858.652 142.925c1.298 0 2.351-1.116 2.351-2.492 0-1.377-1.053-2.493-2.351-2.493-1.299 0-2.351 1.116-2.351 2.493 0 1.376 1.052 2.492 2.351 2.492zm0 1c1.819 0 3.294-1.564 3.294-3.492 0-1.929-1.475-3.493-3.294-3.493-1.82 0-3.295 1.564-3.295 3.493 0 1.928 1.475 3.492 3.295 3.492z" fill="#fff"/></g><defs><filter id="filter0_d" x=".945" y=".852" width="891.754" height="233.627" filterUnits="userSpaceOnUse" color-interpolation-filters="sRGB"><feFlood flood-opacity="0" result="BackgroundImageFix"/><feColorMatrix in="SourceAlpha" values="0 0 0 0 0 0 0 0 0 0 0 0 0 0 0 0 0 0 127 0"/><feOffset dy="4"/><feGaussianBlur stdDeviation="2"/><feColorMatrix values="0 0 0 0 0 0 0 0 0 0 0 0 0 0 0 0 0 0 0.25 0"/><feBlend in2="BackgroundImageFix" result="effect1_dropShadow"/><feBlend in="SourceGraphic" in2="effect1_dropShadow" result="shape"/></filter></defs></svg>